<?xml version="1.0" encoding="utf-8"?>
<!-- Generator: Adobe Illustrator 27.8.0, SVG Export Plug-In . SVG Version: 6.00 Build 0)  -->
<svg version="1.1" xmlns="http://www.w3.org/2000/svg" xmlns:xlink="http://www.w3.org/1999/xlink" x="0px" y="0px"
	 viewBox="0 0 366.5 678" style="enable-background:new 0 0 366.5 678;" xml:space="preserve">
<style type="text/css">
	.st0{fill:#3793CC;}
	.st1{fill:#586C75;}
	.st2{fill:#AAAFB2;}
	.st3{fill:#898989;}
	.st4{fill:#3793CC;stroke:#3793CC;stroke-width:0.75;stroke-miterlimit:10;}
	.st5{font-family:'BerlinSansFB-Reg';}
	.st6{font-size:17.6179px;}
	.st7{fill:#FFFFFF;}
	.st8{fill:url(#SVGID_1_);}
</style>
<g id="Layer_5">
	<g>
		<path class="st0" d="M365.6,43.1v586.2c2.6,31.8-11.3,46.7-38.1,48.4H50c-33.5-1.6-51.8-13.9-49-41.2V43.1
			C-2.3,19,7.3,5.7,26.4,0.4H332C355.9,3.8,368.9,16.5,365.6,43.1z"/>
		<path class="st1" d="M50,678c-20.5-1-34.8-6-42.5-15c-5.7-6.6-8-15.6-6.9-26.6l0-593.3C-2.5,20.2,6.1,5.6,26.3,0l0.1,0H332
			c26,3.7,37.1,17.8,33.9,43.1v586.1c1.3,16-1.6,28.2-8.6,36.3c-6.4,7.4-16.4,11.6-29.8,12.4L50,678z M26.5,0.8
			C6.4,6.3-1.8,20.2,1.4,43.1l0,593.4c-1.1,10.8,1.1,19.6,6.7,26.1c7.6,8.8,21.7,13.8,41.9,14.8h277.5c13.1-0.8,23-4.9,29.3-12.2
			c6.9-8,9.7-20,8.4-35.8l0-586.2l0,0c3.1-24.9-7.7-38.7-33.2-42.3L26.5,0.8z"/>
	</g>
	<g>
		<ellipse class="st2" cx="182.2" cy="475.7" rx="123.8" ry="120.1"/>
		<path class="st3" d="M182.2,596.3c-68.6,0-124.3-54.1-124.3-120.6s55.8-120.6,124.3-120.6c68.6,0,124.3,54.1,124.3,120.6
			S250.7,596.3,182.2,596.3z M182.2,356.1c-68,0-123.3,53.7-123.3,119.6s55.3,119.6,123.3,119.6s123.3-53.7,123.3-119.6
			S250.2,356.1,182.2,356.1z"/>
	</g>
	<g>
		<circle class="st0" cx="182.2" cy="475.7" r="43.5"/>
		<path class="st3" d="M182.2,519.6c-24.2,0-43.8-19.7-43.8-43.8s19.7-43.8,43.8-43.8c24.2,0,43.8,19.7,43.8,43.8
			S206.4,519.6,182.2,519.6z M182.2,432.6c-23.8,0-43.1,19.3-43.1,43.1s19.3,43.1,43.1,43.1c23.8,0,43.1-19.3,43.1-43.1
			S206,432.6,182.2,432.6z"/>
	</g>
</g>
<g id="Layer_4">
	<g id="FAST-FORWARD">
		<g>
			<polygon class="st0" points="269.3,479.2 260.8,473.2 260.8,485 			"/>
			<path class="st0" d="M260.3,486v-13.7l9.9,6.9L260.3,486z M261.3,474.2v9.9l7.1-4.9L261.3,474.2z"/>
		</g>
		<g>
			<polygon class="st0" points="269.3,485 269.9,473.2 278.9,479.1 			"/>
			<path class="st0" d="M268.8,486l0.7-13.6l10.3,6.8L268.8,486z M270.4,474.1l-0.5,10l8.1-5L270.4,474.1z"/>
		</g>
		<g>
			<rect x="278.9" y="473.2" class="st0" width="3.3" height="11.8"/>
			<path class="st0" d="M282.7,485.5h-4.3v-12.8h4.3V485.5z M279.4,484.5h2.3v-10.8h-2.3V484.5z"/>
		</g>
	</g>
	<g id="REVERSE">
		<g>
			<polygon class="st0" points="95.3,479.2 103.8,473.2 103.8,485 			"/>
			<path class="st0" d="M104.3,486l-9.9-6.8l9.9-6.9V486z M96.1,479.2l7.1,4.9v-9.9L96.1,479.2z"/>
		</g>
		<g>
			<polygon class="st0" points="95.3,485 94.7,473.2 85.7,479.1 			"/>
			<path class="st0" d="M95.8,486l-11-6.8l10.3-6.8L95.8,486z M86.6,479.1l8.1,5l-0.5-10L86.6,479.1z"/>
		</g>
		<g>
			<rect x="82.4" y="473.2" class="st0" width="3.3" height="11.8"/>
			<path class="st0" d="M86.2,485.5h-4.3v-12.8h4.3V485.5z M82.9,484.5h2.3v-10.8h-2.3V484.5z"/>
		</g>
	</g>
	<g>
		<polygon class="st0" points="172.5,575.4 172.5,563.6 183.2,569.5 		"/>
		<path class="st0" d="M172,576.2v-13.4l12.3,6.7L172,576.2z M173,564.5v10.1l9.2-5L173,564.5z"/>
	</g>
	<g>
		<rect x="184.5" y="563.6" class="st0" width="2.6" height="11.8"/>
		<path class="st0" d="M187.6,575.9H184v-12.8h3.6V575.9z M185,574.9h1.6v-10.8H185V574.9z"/>
	</g>
	<g>
		<rect x="188.9" y="563.6" class="st0" width="2.6" height="11.8"/>
		<path class="st0" d="M192,575.9h-3.6v-12.8h3.6V575.9z M189.4,574.9h1.6v-10.8h-1.6V574.9z"/>
	</g>
	<text transform="matrix(0.8961 0 0 1 161.4416 398.1)" class="st4 st5 st6">MENU</text>
</g>
<g id="Layer_3">
	<path class="st7" d="M326.6,294.7H37.7c-5.7,0-10.3-4.6-10.3-10.3V40.9c0-5.7,4.6-10.3,10.3-10.3h288.9c5.7,0,10.3,4.6,10.3,10.3
		v243.5C336.9,290,332.3,294.7,326.6,294.7z"/>
</g>
<g id="Layer_6">
	<linearGradient id="SVGID_1_" gradientUnits="userSpaceOnUse" x1="179.4672" y1="162.6156" x2="336.9444" y2="162.6156">
		<stop  offset="0" style="stop-color:#FFF8AA"/>
		<stop  offset="0.1064" style="stop-color:#FFF2AD"/>
		<stop  offset="0.2497" style="stop-color:#FFE1B4"/>
		<stop  offset="0.414" style="stop-color:#FFC5BF"/>
		<stop  offset="0.5941" style="stop-color:#FF9DCF"/>
		<stop  offset="0.787" style="stop-color:#FE6BE4"/>
		<stop  offset="0.9879" style="stop-color:#FE2EFD"/>
		<stop  offset="1" style="stop-color:#FE2AFF"/>
	</linearGradient>
	<rect x="179.5" y="30.6" class="st8" width="157.5" height="264.1"/>
</g>
</svg>
